G04*
G04 #@! TF.GenerationSoftware,Altium Limited,Altium Designer,19.0.15 (446)*
G04*
G04 Layer_Color=8388736*
%FSLAX44Y44*%
%MOMM*%
G71*
G01*
G75*
%ADD20R,1.8288X3.0226*%
%ADD23R,3.9878X7.0104*%
%ADD24R,3.2766X3.3020*%
%ADD40R,3.0226X1.8288*%
%ADD41R,3.6032X1.5032*%
%ADD42O,0.5016X1.0016*%
%ADD43R,2.5016X1.7516*%
%ADD44R,5.6032X3.5032*%
%ADD45R,0.6532X1.8032*%
%ADD46R,0.8332X0.8532*%
%ADD47R,1.2032X1.2032*%
%ADD48R,4.7032X2.5032*%
%ADD49R,4.2032X0.9032*%
%ADD50R,2.5032X1.7032*%
%ADD51R,0.9032X4.2032*%
%ADD52R,1.7032X2.5032*%
%ADD53R,2.5032X4.7032*%
%ADD54R,1.2032X1.2032*%
%ADD55R,1.5032X1.7032*%
%ADD56R,1.7032X1.5032*%
%ADD57R,1.6032X1.4032*%
%ADD58R,1.1032X1.2032*%
%ADD59C,4.2032*%
%ADD60R,4.2032X4.2032*%
%ADD61R,3.2032X2.2032*%
%ADD62R,1.9032X1.9032*%
%ADD63C,1.9032*%
%ADD64R,1.9032X1.9032*%
%ADD65C,0.2032*%
%ADD66C,2.8000*%
%ADD67C,0.8032*%
G36*
X728499Y219100D02*
X720799D01*
Y227000D01*
X728499D01*
Y219100D01*
D02*
G37*
G36*
Y206400D02*
X720799D01*
Y214300D01*
X728499D01*
Y206400D01*
D02*
G37*
G36*
Y193700D02*
X720799D01*
Y201600D01*
X728499D01*
Y193700D01*
D02*
G37*
G36*
X783201Y219100D02*
X779452D01*
Y214300D01*
X783201D01*
Y206400D01*
X779452D01*
Y204000D01*
Y201600D01*
X783201D01*
Y193700D01*
X779452D01*
Y188900D01*
X783201D01*
Y181000D01*
X775501D01*
Y181700D01*
X736548D01*
Y204000D01*
Y226300D01*
X775501D01*
Y227000D01*
X783201D01*
Y219100D01*
D02*
G37*
G36*
X728499Y181000D02*
X720799D01*
Y188900D01*
X728499D01*
Y181000D01*
D02*
G37*
G36*
X783201Y277450D02*
X775501D01*
Y285350D01*
X783201D01*
Y277450D01*
D02*
G37*
G36*
Y264750D02*
X775501D01*
Y272650D01*
X783201D01*
Y264750D01*
D02*
G37*
G36*
Y252050D02*
X775501D01*
Y259950D01*
X783201D01*
Y252050D01*
D02*
G37*
G36*
Y239350D02*
X775501D01*
Y247250D01*
X783201D01*
Y239350D01*
D02*
G37*
G36*
X728499Y284650D02*
X767452D01*
Y262350D01*
Y240050D01*
X728499D01*
Y239350D01*
X720799D01*
Y247250D01*
X724548D01*
Y252050D01*
X720799D01*
Y259950D01*
X724548D01*
Y262350D01*
Y264750D01*
X720799D01*
Y272650D01*
X724548D01*
Y277450D01*
X720799D01*
Y285350D01*
X728499D01*
Y284650D01*
D02*
G37*
G36*
X893999Y438100D02*
X886299D01*
Y446000D01*
X893999D01*
Y438100D01*
D02*
G37*
G36*
Y425400D02*
X886299D01*
Y433300D01*
X893999D01*
Y425400D01*
D02*
G37*
G36*
Y412700D02*
X886299D01*
Y420600D01*
X893999D01*
Y412700D01*
D02*
G37*
G36*
X948701Y438100D02*
X944952D01*
Y433300D01*
X948701D01*
Y425400D01*
X944952D01*
Y423000D01*
Y420600D01*
X948701D01*
Y412700D01*
X944952D01*
Y407900D01*
X948701D01*
Y400000D01*
X941001D01*
Y400700D01*
X902048D01*
Y423000D01*
Y445300D01*
X941001D01*
Y446000D01*
X948701D01*
Y438100D01*
D02*
G37*
G36*
X893999Y400000D02*
X886299D01*
Y407900D01*
X893999D01*
Y400000D01*
D02*
G37*
G36*
X948701Y496100D02*
X941001D01*
Y504000D01*
X948701D01*
Y496100D01*
D02*
G37*
G36*
Y483400D02*
X941001D01*
Y491300D01*
X948701D01*
Y483400D01*
D02*
G37*
G36*
Y470700D02*
X941001D01*
Y478600D01*
X948701D01*
Y470700D01*
D02*
G37*
G36*
Y458000D02*
X941001D01*
Y465900D01*
X948701D01*
Y458000D01*
D02*
G37*
G36*
X893999Y503300D02*
X932952D01*
Y481000D01*
Y458700D01*
X893999D01*
Y458000D01*
X886299D01*
Y465900D01*
X890048D01*
Y470700D01*
X886299D01*
Y478600D01*
X890048D01*
Y481000D01*
Y483400D01*
X886299D01*
Y491300D01*
X890048D01*
Y496100D01*
X886299D01*
Y504000D01*
X893999D01*
Y503300D01*
D02*
G37*
D20*
X490000Y218987D02*
D03*
Y173013D02*
D03*
X659000Y428013D02*
D03*
Y473987D02*
D03*
X749000Y317026D02*
D03*
Y363000D02*
D03*
D23*
X689911Y223000D02*
D03*
X590089D02*
D03*
D24*
X856832Y454950D02*
D03*
X751168D02*
D03*
D40*
X852237Y344750D02*
D03*
X806263D02*
D03*
X616987Y117000D02*
D03*
X571013D02*
D03*
D41*
X545000Y161500D02*
D03*
Y220500D02*
D03*
X711000Y394000D02*
D03*
Y453000D02*
D03*
D42*
X442750Y234500D02*
D03*
X433250D02*
D03*
X423750D02*
D03*
Y204000D02*
D03*
X433250D02*
D03*
X442750D02*
D03*
D43*
X433249Y219251D02*
D03*
D44*
X330000Y390000D02*
D03*
X555300D02*
D03*
X104000D02*
D03*
D45*
X287750Y359500D02*
D03*
X294250D02*
D03*
X300750D02*
D03*
X307250D02*
D03*
X313750D02*
D03*
X320250D02*
D03*
X326750D02*
D03*
X333250D02*
D03*
X339750D02*
D03*
X346250D02*
D03*
X352750D02*
D03*
X359250D02*
D03*
X365750D02*
D03*
X372250D02*
D03*
X287750Y420500D02*
D03*
X294250D02*
D03*
X300750D02*
D03*
X307250D02*
D03*
X313750D02*
D03*
X320250D02*
D03*
X326750D02*
D03*
X333250D02*
D03*
X339750D02*
D03*
X346250D02*
D03*
X352750D02*
D03*
X359250D02*
D03*
X365750D02*
D03*
X372250D02*
D03*
X513050Y359500D02*
D03*
X519550D02*
D03*
X526050D02*
D03*
X532550D02*
D03*
X539050D02*
D03*
X545550D02*
D03*
X552050D02*
D03*
X558550D02*
D03*
X565050D02*
D03*
X571550D02*
D03*
X578050D02*
D03*
X584550D02*
D03*
X591050D02*
D03*
X597550D02*
D03*
X513050Y420500D02*
D03*
X519550D02*
D03*
X526050D02*
D03*
X532550D02*
D03*
X539050D02*
D03*
X545550D02*
D03*
X552050D02*
D03*
X558550D02*
D03*
X565050D02*
D03*
X571550D02*
D03*
X578050D02*
D03*
X584550D02*
D03*
X591050D02*
D03*
X597550D02*
D03*
X61750Y359500D02*
D03*
X68250D02*
D03*
X74750D02*
D03*
X81250D02*
D03*
X87750D02*
D03*
X94250D02*
D03*
X100750D02*
D03*
X107250D02*
D03*
X113750D02*
D03*
X120250D02*
D03*
X126750D02*
D03*
X133250D02*
D03*
X139750D02*
D03*
X146250D02*
D03*
X61750Y420500D02*
D03*
X68250D02*
D03*
X74750D02*
D03*
X81250D02*
D03*
X87750D02*
D03*
X94250D02*
D03*
X100750D02*
D03*
X107250D02*
D03*
X113750D02*
D03*
X120250D02*
D03*
X126750D02*
D03*
X133250D02*
D03*
X139750D02*
D03*
X146250D02*
D03*
D46*
X724649Y243300D02*
D03*
Y256000D02*
D03*
Y268700D02*
D03*
Y281400D02*
D03*
X779351D02*
D03*
Y268700D02*
D03*
Y256000D02*
D03*
Y243300D02*
D03*
X944851Y442050D02*
D03*
Y429350D02*
D03*
Y416650D02*
D03*
Y403950D02*
D03*
X890149D02*
D03*
Y416650D02*
D03*
Y429350D02*
D03*
Y442050D02*
D03*
Y461950D02*
D03*
Y474650D02*
D03*
Y487350D02*
D03*
Y500050D02*
D03*
X944851D02*
D03*
Y487350D02*
D03*
Y474650D02*
D03*
Y461950D02*
D03*
X779351Y223050D02*
D03*
Y210350D02*
D03*
Y197650D02*
D03*
Y184950D02*
D03*
X724649D02*
D03*
Y197650D02*
D03*
Y210350D02*
D03*
Y223050D02*
D03*
D47*
X177250Y496750D02*
D03*
Y480750D02*
D03*
X617250Y403500D02*
D03*
Y419500D02*
D03*
X166000Y404000D02*
D03*
Y420000D02*
D03*
X391930Y404000D02*
D03*
Y420000D02*
D03*
X497000Y353000D02*
D03*
Y337000D02*
D03*
X47500Y334000D02*
D03*
Y318000D02*
D03*
X270000Y353000D02*
D03*
Y337000D02*
D03*
X587250Y442750D02*
D03*
Y458750D02*
D03*
X136000Y443000D02*
D03*
Y459000D02*
D03*
X362000Y443000D02*
D03*
Y459000D02*
D03*
X982000Y459750D02*
D03*
Y443750D02*
D03*
X964000Y459750D02*
D03*
Y443750D02*
D03*
X797000Y226500D02*
D03*
Y242500D02*
D03*
X404000Y202250D02*
D03*
Y218250D02*
D03*
X797000Y166750D02*
D03*
Y182750D02*
D03*
X378000Y500000D02*
D03*
Y484000D02*
D03*
D48*
X618000Y336000D02*
D03*
X693500D02*
D03*
D49*
X85390Y150904D02*
D03*
Y135904D02*
D03*
Y105904D02*
D03*
Y90904D02*
D03*
Y120904D02*
D03*
Y272570D02*
D03*
Y257570D02*
D03*
Y227570D02*
D03*
Y212570D02*
D03*
Y242570D02*
D03*
D50*
X59390Y171404D02*
D03*
Y70404D02*
D03*
Y293070D02*
D03*
Y192070D02*
D03*
D51*
X140500Y83000D02*
D03*
X155500D02*
D03*
X170500D02*
D03*
X185500D02*
D03*
X360500Y83500D02*
D03*
X375500D02*
D03*
X390500D02*
D03*
X405500D02*
D03*
X249500D02*
D03*
X264500D02*
D03*
X279500D02*
D03*
X294500D02*
D03*
D52*
X120000Y57000D02*
D03*
X206000D02*
D03*
X340000Y57500D02*
D03*
X426000D02*
D03*
X229000D02*
D03*
X315000D02*
D03*
D53*
X221000Y372250D02*
D03*
Y447750D02*
D03*
X447000Y372250D02*
D03*
Y447750D02*
D03*
D54*
X509750Y451928D02*
D03*
X525750D02*
D03*
X59000Y451250D02*
D03*
X75000D02*
D03*
X284000D02*
D03*
X300000D02*
D03*
X603750Y443000D02*
D03*
X619750D02*
D03*
X152500D02*
D03*
X168500D02*
D03*
X378500D02*
D03*
X394500D02*
D03*
X449000Y252500D02*
D03*
X465000D02*
D03*
D55*
X963250Y361000D02*
D03*
X946250D02*
D03*
X963250Y383000D02*
D03*
X946250D02*
D03*
D56*
X1002000Y442750D02*
D03*
Y459750D02*
D03*
X816250Y183750D02*
D03*
Y166750D02*
D03*
X838000Y225500D02*
D03*
Y242500D02*
D03*
X816000Y225500D02*
D03*
Y242500D02*
D03*
X449250Y183750D02*
D03*
Y166750D02*
D03*
X425750Y183750D02*
D03*
Y166750D02*
D03*
D57*
X124750Y227500D02*
D03*
Y209500D02*
D03*
X160000Y242750D02*
D03*
Y260750D02*
D03*
D58*
X530050Y334250D02*
D03*
X513050D02*
D03*
X82000Y325000D02*
D03*
X65000D02*
D03*
X304375Y332625D02*
D03*
X287375D02*
D03*
D59*
X884000Y287000D02*
D03*
D60*
Y215000D02*
D03*
D61*
X944000Y183500D02*
D03*
Y318500D02*
D03*
D62*
X653000Y134250D02*
D03*
Y108850D02*
D03*
X885250Y134250D02*
D03*
Y108850D02*
D03*
X769000Y134250D02*
D03*
Y108850D02*
D03*
D63*
X494050Y307340D02*
D03*
X468650D02*
D03*
X443250D02*
D03*
X417850D02*
D03*
X519450D02*
D03*
X510000Y87000D02*
D03*
Y57000D02*
D03*
X480000D02*
D03*
X677200Y68000D02*
D03*
X702600D02*
D03*
X337000Y495000D02*
D03*
X311600D02*
D03*
X135400D02*
D03*
X110000D02*
D03*
X561750D02*
D03*
X536350D02*
D03*
X901350Y67500D02*
D03*
X926750D02*
D03*
X789275Y68000D02*
D03*
X814675D02*
D03*
D64*
X392450Y307340D02*
D03*
X480000Y87000D02*
D03*
X728000Y68000D02*
D03*
X286200Y495000D02*
D03*
X84600D02*
D03*
X510950D02*
D03*
X952150Y67500D02*
D03*
X840075Y68000D02*
D03*
D65*
X450000Y47600D02*
D03*
X540000D02*
D03*
D66*
X35000Y35000D02*
D03*
Y525000D02*
D03*
X615000D02*
D03*
Y35000D02*
D03*
X1015000Y525000D02*
D03*
Y35000D02*
D03*
D67*
X637750Y286000D02*
D03*
X652750D02*
D03*
Y271000D02*
D03*
X637750D02*
D03*
X438750Y219250D02*
D03*
X427750D02*
D03*
X318999Y390000D02*
D03*
X318998Y401000D02*
D03*
X329999D02*
D03*
X307999Y401000D02*
D03*
Y390000D02*
D03*
X307998Y379000D02*
D03*
X318998D02*
D03*
X329999D02*
D03*
X341000Y401000D02*
D03*
Y379000D02*
D03*
Y390000D02*
D03*
X352000Y401000D02*
D03*
Y390000D02*
D03*
X330000D02*
D03*
X352000Y379000D02*
D03*
X849000Y378000D02*
D03*
X864000D02*
D03*
Y363000D02*
D03*
X849000D02*
D03*
X544299Y390000D02*
D03*
X544298Y401000D02*
D03*
X555299D02*
D03*
X533299Y401000D02*
D03*
Y390000D02*
D03*
X533298Y379000D02*
D03*
X544298D02*
D03*
X555299D02*
D03*
X566300Y401000D02*
D03*
Y379000D02*
D03*
Y390000D02*
D03*
X577300Y401000D02*
D03*
Y390000D02*
D03*
X555300D02*
D03*
X577300Y379000D02*
D03*
X92999Y390000D02*
D03*
X92998Y401000D02*
D03*
X103999D02*
D03*
X81999Y401000D02*
D03*
Y390000D02*
D03*
X81997Y379000D02*
D03*
X92998D02*
D03*
X103999D02*
D03*
X115000Y401000D02*
D03*
Y379000D02*
D03*
Y390000D02*
D03*
X126000Y401000D02*
D03*
Y390000D02*
D03*
X104000D02*
D03*
X126000Y379000D02*
D03*
M02*
