G04*
G04 #@! TF.GenerationSoftware,Altium Limited,Altium Designer,19.0.15 (446)*
G04*
G04 Layer_Color=128*
%FSLAX44Y44*%
%MOMM*%
G71*
G01*
G75*
%ADD28R,1.0000X1.0000*%
%ADD35R,1.0000X1.0000*%
%ADD36R,1.3000X1.5000*%
%ADD37R,1.5000X1.3000*%
%ADD38R,1.4000X1.2000*%
%ADD39R,0.9000X1.0000*%
%ADD80O,1.4000X0.3000*%
%ADD81O,0.3000X1.4000*%
%ADD82R,0.8500X1.7000*%
%ADD83R,1.0000X0.9000*%
G04:AMPARAMS|DCode=84|XSize=3mm|YSize=3.1mm|CornerRadius=0.045mm|HoleSize=0mm|Usage=FLASHONLY|Rotation=0.000|XOffset=0mm|YOffset=0mm|HoleType=Round|Shape=RoundedRectangle|*
%AMROUNDEDRECTD84*
21,1,3.0000,3.0100,0,0,0.0*
21,1,2.9100,3.1000,0,0,0.0*
1,1,0.0900,1.4550,-1.5050*
1,1,0.0900,-1.4550,-1.5050*
1,1,0.0900,-1.4550,1.5050*
1,1,0.0900,1.4550,1.5050*
%
%ADD84ROUNDEDRECTD84*%
G04:AMPARAMS|DCode=85|XSize=0.45mm|YSize=1.6mm|CornerRadius=0.0495mm|HoleSize=0mm|Usage=FLASHONLY|Rotation=270.000|XOffset=0mm|YOffset=0mm|HoleType=Round|Shape=RoundedRectangle|*
%AMROUNDEDRECTD85*
21,1,0.4500,1.5010,0,0,270.0*
21,1,0.3510,1.6000,0,0,270.0*
1,1,0.0990,-0.7505,-0.1755*
1,1,0.0990,-0.7505,0.1755*
1,1,0.0990,0.7505,0.1755*
1,1,0.0990,0.7505,-0.1755*
%
%ADD85ROUNDEDRECTD85*%
%ADD86R,0.6096X1.7780*%
G04:AMPARAMS|DCode=87|XSize=0.65mm|YSize=1.2mm|CornerRadius=0.0488mm|HoleSize=0mm|Usage=FLASHONLY|Rotation=270.000|XOffset=0mm|YOffset=0mm|HoleType=Round|Shape=RoundedRectangle|*
%AMROUNDEDRECTD87*
21,1,0.6500,1.1025,0,0,270.0*
21,1,0.5525,1.2000,0,0,270.0*
1,1,0.0975,-0.5513,-0.2763*
1,1,0.0975,-0.5513,0.2763*
1,1,0.0975,0.5513,0.2763*
1,1,0.0975,0.5513,-0.2763*
%
%ADD87ROUNDEDRECTD87*%
%ADD88R,1.8000X1.4000*%
%ADD89R,1.8000X1.3000*%
%ADD90R,1.2000X1.4000*%
G04:AMPARAMS|DCode=91|XSize=0.65mm|YSize=1.2mm|CornerRadius=0.0488mm|HoleSize=0mm|Usage=FLASHONLY|Rotation=180.000|XOffset=0mm|YOffset=0mm|HoleType=Round|Shape=RoundedRectangle|*
%AMROUNDEDRECTD91*
21,1,0.6500,1.1025,0,0,180.0*
21,1,0.5525,1.2000,0,0,180.0*
1,1,0.0975,-0.2763,0.5513*
1,1,0.0975,0.2763,0.5513*
1,1,0.0975,0.2763,-0.5513*
1,1,0.0975,-0.2763,-0.5513*
%
%ADD91ROUNDEDRECTD91*%
D28*
X273250Y94250D02*
D03*
Y78250D02*
D03*
X171500Y84250D02*
D03*
Y100250D02*
D03*
X379000Y192368D02*
D03*
Y208368D02*
D03*
X216500Y284500D02*
D03*
Y268500D02*
D03*
X208000Y213000D02*
D03*
Y197000D02*
D03*
D35*
X297000Y104000D02*
D03*
X313000D02*
D03*
X297000Y79000D02*
D03*
X313000D02*
D03*
X728250Y104000D02*
D03*
X744250D02*
D03*
X843250Y104750D02*
D03*
X859250D02*
D03*
X962000Y104500D02*
D03*
X978000D02*
D03*
X359000Y314250D02*
D03*
X343000D02*
D03*
D36*
X596750Y238250D02*
D03*
X613750D02*
D03*
X766500Y414000D02*
D03*
X749500D02*
D03*
X598250Y194000D02*
D03*
X581250D02*
D03*
X365000Y158000D02*
D03*
X348000D02*
D03*
X281000Y138000D02*
D03*
X264000D02*
D03*
X280750Y156750D02*
D03*
X263750D02*
D03*
X808500Y328000D02*
D03*
X825500D02*
D03*
D37*
X794000Y381500D02*
D03*
Y398500D02*
D03*
X583500Y289500D02*
D03*
Y306500D02*
D03*
D38*
X826000Y431000D02*
D03*
Y413000D02*
D03*
X397250Y157500D02*
D03*
Y139500D02*
D03*
X887000Y432000D02*
D03*
Y414000D02*
D03*
X614750Y339000D02*
D03*
Y321000D02*
D03*
X676000Y335750D02*
D03*
Y317750D02*
D03*
X397250Y199250D02*
D03*
Y217250D02*
D03*
D39*
X693250Y466000D02*
D03*
X710250D02*
D03*
X502000Y226000D02*
D03*
X519000D02*
D03*
X229000Y138000D02*
D03*
X246000D02*
D03*
D80*
X355750Y198500D02*
D03*
Y203500D02*
D03*
Y208500D02*
D03*
Y213500D02*
D03*
Y218500D02*
D03*
Y223500D02*
D03*
Y228500D02*
D03*
Y233500D02*
D03*
Y238500D02*
D03*
Y243500D02*
D03*
Y248500D02*
D03*
Y253500D02*
D03*
Y258500D02*
D03*
Y263500D02*
D03*
Y268500D02*
D03*
Y273500D02*
D03*
X241750D02*
D03*
Y268500D02*
D03*
Y263500D02*
D03*
Y258500D02*
D03*
Y253500D02*
D03*
Y248500D02*
D03*
Y243500D02*
D03*
Y238500D02*
D03*
Y233500D02*
D03*
Y228500D02*
D03*
Y223500D02*
D03*
Y218500D02*
D03*
Y213500D02*
D03*
Y208500D02*
D03*
Y203500D02*
D03*
Y198500D02*
D03*
D81*
X336250Y293000D02*
D03*
X331250D02*
D03*
X326250D02*
D03*
X321250D02*
D03*
X316250D02*
D03*
X311250D02*
D03*
X306250D02*
D03*
X301250D02*
D03*
X296250D02*
D03*
X291250D02*
D03*
X286250D02*
D03*
X281250D02*
D03*
X276250D02*
D03*
X271250D02*
D03*
X266250D02*
D03*
X261250D02*
D03*
Y179000D02*
D03*
X266250D02*
D03*
X271250D02*
D03*
X276250D02*
D03*
X281250D02*
D03*
X286250D02*
D03*
X291250D02*
D03*
X296250D02*
D03*
X301250D02*
D03*
X306250D02*
D03*
X311250D02*
D03*
X316250D02*
D03*
X321250D02*
D03*
X326250D02*
D03*
X331250D02*
D03*
X336250D02*
D03*
D82*
X338250Y103500D02*
D03*
X393250D02*
D03*
X338250Y79000D02*
D03*
X393250D02*
D03*
D83*
X325500Y139250D02*
D03*
Y122250D02*
D03*
X312250D02*
D03*
Y139250D02*
D03*
X299000Y122250D02*
D03*
Y139250D02*
D03*
X339000Y139250D02*
D03*
Y122250D02*
D03*
D84*
X645250Y278500D02*
D03*
X856500Y370500D02*
D03*
D85*
X614750Y259000D02*
D03*
Y265500D02*
D03*
Y272000D02*
D03*
Y278500D02*
D03*
Y285000D02*
D03*
Y291500D02*
D03*
Y298000D02*
D03*
X675750Y259000D02*
D03*
Y265500D02*
D03*
Y272000D02*
D03*
Y278500D02*
D03*
Y285000D02*
D03*
Y291500D02*
D03*
Y298000D02*
D03*
X826000Y351000D02*
D03*
Y357500D02*
D03*
Y364000D02*
D03*
Y370500D02*
D03*
Y377000D02*
D03*
Y383500D02*
D03*
Y390000D02*
D03*
X887000Y351000D02*
D03*
Y357500D02*
D03*
Y364000D02*
D03*
Y370500D02*
D03*
Y377000D02*
D03*
Y383500D02*
D03*
Y390000D02*
D03*
D86*
X503000Y177000D02*
D03*
X522000D02*
D03*
Y200368D02*
D03*
X512500D02*
D03*
X503000D02*
D03*
X692750Y444934D02*
D03*
X702250D02*
D03*
X711750D02*
D03*
Y421566D02*
D03*
X692750D02*
D03*
D87*
X941500Y105500D02*
D03*
Y124500D02*
D03*
X912000D02*
D03*
Y115000D02*
D03*
Y105500D02*
D03*
X824500Y107250D02*
D03*
Y126250D02*
D03*
X795000D02*
D03*
Y116750D02*
D03*
Y107250D02*
D03*
X678750Y106500D02*
D03*
Y116000D02*
D03*
Y125500D02*
D03*
X708250D02*
D03*
Y106500D02*
D03*
D88*
X200250Y101500D02*
D03*
Y77500D02*
D03*
X244250Y101500D02*
D03*
Y77500D02*
D03*
D89*
X713750Y262500D02*
D03*
Y291500D02*
D03*
X933250Y356750D02*
D03*
Y385750D02*
D03*
D90*
X435500Y118750D02*
D03*
X417500D02*
D03*
X748250Y436000D02*
D03*
X766250D02*
D03*
X766250Y457000D02*
D03*
X748250D02*
D03*
X581000Y172000D02*
D03*
X599000D02*
D03*
X620000D02*
D03*
X638000D02*
D03*
D91*
X636000Y411000D02*
D03*
X655000D02*
D03*
Y440500D02*
D03*
X645500D02*
D03*
X636000D02*
D03*
X453000Y174000D02*
D03*
X472000D02*
D03*
Y203500D02*
D03*
X462500D02*
D03*
X453000D02*
D03*
M02*
