G04*
G04 #@! TF.GenerationSoftware,Altium Limited,Altium Designer,19.0.15 (446)*
G04*
G04 Layer_Physical_Order=2*
G04 Layer_Color=32768*
%FSLAX44Y44*%
%MOMM*%
G71*
G01*
G75*
%ADD80C,1.0160*%
%ADD81C,2.0360*%
G04:AMPARAMS|DCode=82|XSize=3.052mm|YSize=3.052mm|CornerRadius=0mm|HoleSize=0mm|Usage=FLASHONLY|Rotation=0.000|XOffset=0mm|YOffset=0mm|HoleType=Round|Shape=Relief|Width=1.016mm|Gap=0.508mm|Entries=4|*
%AMTHD82*
7,0,0,3.0520,2.0360,1.0160,45*
%
%ADD82THD82*%
G04:AMPARAMS|DCode=83|XSize=4.832mm|YSize=4.832mm|CornerRadius=0mm|HoleSize=0mm|Usage=FLASHONLY|Rotation=0.000|XOffset=0mm|YOffset=0mm|HoleType=Round|Shape=Relief|Width=1.016mm|Gap=0.508mm|Entries=4|*
%AMTHD83*
7,0,0,4.8320,3.8160,1.0160,45*
%
%ADD83THD83*%
%ADD84C,3.8160*%
%AMTHOVALD85*
21,1,1.1000,2.9320,0,0,360.0*
1,1,2.9320,-0.5500,0.0000*
1,1,2.9320,0.5500,0.0000*
21,0,1.1000,1.9160,0,0,360.0*
1,0,1.9160,-0.5500,0.0000*
1,0,1.9160,0.5500,0.0000*
4,0,4,-0.1908,-0.3592,-1.2274,-1.3958,-1.9458,-0.6774,-0.9092,0.3592,-0.1908,-0.3592,0.0*
4,0,4,0.9092,-0.3592,1.9458,0.6774,1.2274,1.3958,0.1908,0.3592,0.9092,-0.3592,0.0*
4,0,4,-0.9092,-0.3592,-1.9458,0.6774,-1.2274,1.3958,-0.1908,0.3592,-0.9092,-0.3592,0.0*
4,0,4,0.1908,-0.3592,1.2274,-1.3958,1.9458,-0.6774,0.9092,0.3592,0.1908,-0.3592,0.0*
%
%ADD85THOVALD85*%

%ADD86C,1.3160*%
D80*
X0Y0D02*
Y560000D01*
X1050000Y560000D01*
Y-0D02*
Y560000D01*
X0Y0D02*
X1050000Y-0D01*
D81*
X494050Y307340D02*
D03*
X468650D02*
D03*
X417850D02*
D03*
X392450D02*
D03*
X519450D02*
D03*
X337000Y495000D02*
D03*
X286200D02*
D03*
X311600D02*
D03*
X561750D02*
D03*
X510950D02*
D03*
X536350D02*
D03*
X450000Y47600D02*
D03*
X480000Y87000D02*
D03*
X510000D02*
D03*
X480000Y57000D02*
D03*
X540000Y47600D02*
D03*
X653000Y134250D02*
D03*
Y108850D02*
D03*
X769000Y134250D02*
D03*
Y108850D02*
D03*
X885250Y134250D02*
D03*
Y108850D02*
D03*
X926750Y67500D02*
D03*
X901350D02*
D03*
X814675Y68000D02*
D03*
X789275D02*
D03*
X702600D02*
D03*
X677200D02*
D03*
X110000Y495000D02*
D03*
X84600D02*
D03*
X135400D02*
D03*
D82*
X443250Y307340D02*
D03*
X510000Y57000D02*
D03*
X952150Y67500D02*
D03*
X840075Y68000D02*
D03*
X728000D02*
D03*
D83*
X884000Y287000D02*
D03*
D84*
Y215000D02*
D03*
X1015000Y35000D02*
D03*
Y525000D02*
D03*
X35000D02*
D03*
Y35000D02*
D03*
X615000D02*
D03*
Y525000D02*
D03*
D85*
X944000Y183500D02*
D03*
Y318500D02*
D03*
D86*
X229000Y125500D02*
D03*
X346500Y345250D02*
D03*
X105500Y324500D02*
D03*
X352750Y332000D02*
D03*
X194500Y134000D02*
D03*
X183000Y141250D02*
D03*
X176000Y146750D02*
D03*
X164500Y118250D02*
D03*
X280250Y192250D02*
D03*
X274000Y200000D02*
D03*
X599000Y481000D02*
D03*
X606750Y481237D02*
D03*
X920750Y370250D02*
D03*
X868250Y487500D02*
D03*
X860750D02*
D03*
X853250D02*
D03*
X845750D02*
D03*
X868250Y480000D02*
D03*
X860750D02*
D03*
X853250D02*
D03*
X845750D02*
D03*
X699000Y297000D02*
D03*
Y304500D02*
D03*
X707000D02*
D03*
X715000D02*
D03*
X686000Y179750D02*
D03*
Y170500D02*
D03*
X676750D02*
D03*
X667250Y170750D02*
D03*
X658000D02*
D03*
X676750Y179750D02*
D03*
X667250Y180000D02*
D03*
X658000D02*
D03*
Y189250D02*
D03*
X941250Y134250D02*
D03*
X825250Y136250D02*
D03*
X709000Y134250D02*
D03*
X724000Y480750D02*
D03*
X846750Y398250D02*
D03*
X854250D02*
D03*
X861750D02*
D03*
X869250D02*
D03*
X846750Y405750D02*
D03*
X854250D02*
D03*
X861750D02*
D03*
X869250D02*
D03*
X958000Y499750D02*
D03*
X425500Y258250D02*
D03*
X536000Y200000D02*
D03*
X658000Y319750D02*
D03*
X650500D02*
D03*
X643000D02*
D03*
X635500D02*
D03*
X658000Y312250D02*
D03*
X650500D02*
D03*
X643000D02*
D03*
X635500D02*
D03*
X731750Y168750D02*
D03*
X779500Y296250D02*
D03*
X590000Y262750D02*
D03*
X598000Y262750D02*
D03*
X590000Y270750D02*
D03*
X598000Y270750D02*
D03*
X763750Y352000D02*
D03*
X763750Y359500D02*
D03*
X763750Y367000D02*
D03*
X763750Y374500D02*
D03*
X763750Y382000D02*
D03*
X756250Y382000D02*
D03*
X741250Y382000D02*
D03*
X733750Y352000D02*
D03*
X733750Y359500D02*
D03*
X733750Y367000D02*
D03*
X733750Y374500D02*
D03*
X720179Y354500D02*
D03*
X674322D02*
D03*
X681822D02*
D03*
X712679D02*
D03*
X705179D02*
D03*
X697679D02*
D03*
X689322D02*
D03*
X696250Y406000D02*
D03*
X711250Y382000D02*
D03*
X718750Y382000D02*
D03*
X726250D02*
D03*
X703750Y382000D02*
D03*
X696250D02*
D03*
X733750Y382000D02*
D03*
X688750D02*
D03*
X733750Y406000D02*
D03*
X688750D02*
D03*
X703750Y406000D02*
D03*
X726250D02*
D03*
X718750D02*
D03*
X711250D02*
D03*
X644000Y458987D02*
D03*
Y466487D02*
D03*
Y481487D02*
D03*
Y488987D02*
D03*
Y473987D02*
D03*
Y496487D02*
D03*
X651500D02*
D03*
X659000D02*
D03*
X666500D02*
D03*
X674000D02*
D03*
Y488987D02*
D03*
Y481487D02*
D03*
Y458987D02*
D03*
Y466487D02*
D03*
Y473987D02*
D03*
X599250Y458500D02*
D03*
Y466000D02*
D03*
Y473737D02*
D03*
X591875D02*
D03*
X606750Y458500D02*
D03*
Y466000D02*
D03*
Y473737D02*
D03*
X584250Y473750D02*
D03*
Y481250D02*
D03*
X591875Y481237D02*
D03*
X628070Y424500D02*
D03*
Y417000D02*
D03*
X530300Y434000D02*
D03*
X522925D02*
D03*
Y441375D02*
D03*
X530300D02*
D03*
X189686Y478857D02*
D03*
Y470500D02*
D03*
X181329D02*
D03*
X172971D02*
D03*
X164614D02*
D03*
Y478857D02*
D03*
X131186Y467107D02*
D03*
X139543Y475464D02*
D03*
Y467107D02*
D03*
X147900Y475464D02*
D03*
X156257Y467107D02*
D03*
Y458750D02*
D03*
X147900Y467107D02*
D03*
Y458750D02*
D03*
X176820Y417500D02*
D03*
Y425000D02*
D03*
X211750Y418500D02*
D03*
X230250Y418500D02*
D03*
X202500Y418500D02*
D03*
X239500Y418500D02*
D03*
Y426857D02*
D03*
Y435214D02*
D03*
Y443571D02*
D03*
Y451928D02*
D03*
Y460285D02*
D03*
Y468643D02*
D03*
X202500Y468643D02*
D03*
Y460286D02*
D03*
Y451929D02*
D03*
Y443572D02*
D03*
Y435214D02*
D03*
Y426857D02*
D03*
X211750Y477000D02*
D03*
X230250Y477000D02*
D03*
X239500Y477000D02*
D03*
X202500Y477000D02*
D03*
X79000Y434000D02*
D03*
X71625D02*
D03*
Y441375D02*
D03*
X79000D02*
D03*
X305000D02*
D03*
X297625D02*
D03*
Y434000D02*
D03*
X389000Y481487D02*
D03*
Y473987D02*
D03*
X366625Y481487D02*
D03*
X359000Y481500D02*
D03*
Y474000D02*
D03*
X402750Y425000D02*
D03*
Y417500D02*
D03*
X458250Y219000D02*
D03*
Y242250D02*
D03*
Y226750D02*
D03*
Y234500D02*
D03*
X521750Y164250D02*
D03*
Y156500D02*
D03*
Y148750D02*
D03*
X450500Y234500D02*
D03*
X474000Y152750D02*
D03*
X481750D02*
D03*
X489500D02*
D03*
X497250D02*
D03*
X512750Y167000D02*
D03*
Y174750D02*
D03*
Y182500D02*
D03*
X505000Y152750D02*
D03*
Y160500D02*
D03*
X550250Y108250D02*
D03*
Y116000D02*
D03*
Y123750D02*
D03*
X583750Y133250D02*
D03*
X576000D02*
D03*
X568250D02*
D03*
X560500D02*
D03*
X529500Y141000D02*
D03*
X537250D02*
D03*
X545000D02*
D03*
X552750D02*
D03*
X560500D02*
D03*
Y148750D02*
D03*
X552750D02*
D03*
X545000D02*
D03*
X537250D02*
D03*
X529500D02*
D03*
X344500Y171750D02*
D03*
X422750Y195000D02*
D03*
X393750Y171500D02*
D03*
Y179250D02*
D03*
X401500Y171500D02*
D03*
Y179250D02*
D03*
X393750Y187000D02*
D03*
X437500Y137000D02*
D03*
Y144750D02*
D03*
Y152500D02*
D03*
X445250Y137000D02*
D03*
Y144750D02*
D03*
Y152500D02*
D03*
X453000Y137000D02*
D03*
Y144750D02*
D03*
Y152500D02*
D03*
X401500Y187000D02*
D03*
X428500Y477000D02*
D03*
X465500Y477000D02*
D03*
X456250Y477000D02*
D03*
X437750Y477000D02*
D03*
X428500Y426857D02*
D03*
Y435214D02*
D03*
Y443572D02*
D03*
Y451929D02*
D03*
Y460286D02*
D03*
Y468643D02*
D03*
X465500Y468643D02*
D03*
Y460285D02*
D03*
Y451928D02*
D03*
Y443571D02*
D03*
Y435214D02*
D03*
Y426857D02*
D03*
Y418500D02*
D03*
X428500Y418500D02*
D03*
X456250Y418500D02*
D03*
X437750Y418500D02*
D03*
X381500Y473987D02*
D03*
Y466250D02*
D03*
Y458750D02*
D03*
X366625Y473987D02*
D03*
X374000D02*
D03*
Y466250D02*
D03*
Y458750D02*
D03*
X305000Y434000D02*
D03*
X375500Y108500D02*
D03*
X248250Y294000D02*
D03*
X273250Y264750D02*
D03*
X287500Y267000D02*
D03*
X274750Y251250D02*
D03*
X335500Y225500D02*
D03*
X303500Y320500D02*
D03*
X376000Y280500D02*
D03*
X353500Y298500D02*
D03*
X324250Y270750D02*
D03*
X332000Y243000D02*
D03*
X321500Y233500D02*
D03*
X286200Y217790D02*
D03*
X294250Y206250D02*
D03*
X330000Y212250D02*
D03*
X338338Y258500D02*
D03*
X339000Y270833D02*
D03*
X331500Y199750D02*
D03*
X301250Y195500D02*
D03*
X139360Y260720D02*
D03*
X55390Y105904D02*
D03*
Y120904D02*
D03*
Y227570D02*
D03*
Y242570D02*
D03*
X292000Y320500D02*
D03*
X132500Y336250D02*
D03*
X366000Y333000D02*
D03*
X333750Y342750D02*
D03*
X126500Y299500D02*
D03*
X113809Y293323D02*
D03*
X358500Y339500D02*
D03*
X119750Y330000D02*
D03*
X140500Y318000D02*
D03*
X55250Y212750D02*
D03*
X56000Y91000D02*
D03*
X82368Y312250D02*
D03*
X68250Y341750D02*
D03*
X231000Y283500D02*
D03*
X171375Y53000D02*
D03*
X154250D02*
D03*
X263750D02*
D03*
X375000D02*
D03*
X279000D02*
D03*
X390750Y53000D02*
D03*
X405500Y53500D02*
D03*
X294500D02*
D03*
X185500Y53000D02*
D03*
X367000Y192368D02*
D03*
X220375Y209625D02*
D03*
M02*
