M48
;Layer_Color=9474304
;FILE_FORMAT=4:4
METRIC,LZ
;TYPE=PLATED
T1F00S00C0.3000
T3F00S00C1.0200
T4F00S00C2.8000
;TYPE=NON_PLATED
T5F00S00C1.0200
%
T01
X000432Y0006025
X0004325Y0010255
X0005539Y00105904
Y00120904
X00056Y00136
Y00091
X001205Y0009325
X001205Y0008525
X001285Y0008525
X001285Y0009325
X00128Y0013675
X0012Y0013675
X0012605Y000425
X001405Y00053
X0007525Y000425
X0015425Y00053
X00171375
X001855Y00053
X0017685Y0003775
X0022765
X002495Y000535
X0026375Y00053
X00279
X0027845Y00038919
X002945Y000535
X0032165Y0003775
X0037245
X00375Y00053
X003605Y000535
X0035025Y00073253
Y00082
X00326Y0009144
X003755Y001085
X00438Y001015
X00429843Y0007525
X0042315Y000425
X004055Y000535
X0039075Y00053
X0047395Y000425
X0052475
X005295Y00141
X0053725
X00453Y00137
X0044525
X004375
X00229Y001255
X0021375Y0012475
X001945Y00134
X00183Y0014125
X001645Y0011825
X0022975Y0009519
X0055025Y0010825
Y00116
Y0012375
X005605Y0013325
X0056825
X00576
X0058375
X005605Y00141
X0055275
X00545
X0060375Y0010075
X0061675Y00100526
X0062975Y00100301
X0062925Y00070775
X0061625Y00071
X0060325Y00071224
X00582318Y000425
X0064
X00683918
X00734718
X0074525Y00073
X00756Y00073
X00769Y000675
X00785518Y000425
X00836318
X00857Y00072
X0086775Y00072
X008795
X0086925Y0009125
X008575
X0084675Y0009125
X0090475Y0009375
X009145
X0091525Y0013525
X009045Y0013525
X00927Y0013525
X0082525Y0013625
X0081Y00137
X0079825
X007875Y00137
X0075175Y00094
X0074175
X00709Y0013425
X0069375Y00133155
X0068175Y0013475
X0067075Y001365
X00887117Y000425
X00937917
X0094525Y0008475
X0094125Y0013425
X0100825Y00094163
X00988717Y000425
X0100825Y00144963
Y00195763
Y00246563
Y00297363
Y00348163
Y00398963
X0100575Y00471
Y004785
X0099825
X0099075
X0098325
X0097575
Y00486
Y004935
X0096825
Y00486
Y004785
Y00471
X0097575
X0098325
X0099075
X0099825
X0100825Y00500563
X00976149Y0051816
X00958Y0049975
X0095575Y003335
X009445
X009335Y003335
X0092075Y0037025
X0089225Y00344
X00881
X00864Y00363
Y00378
X00849
Y00363
X0084675Y0039825
X0085425
X0086175
X0086925
Y0040575
X0086175
X0085425
X0084675
X00809Y0041525
Y004255
X0079875
Y0041525
X00809Y0037925
X0076375Y00382
X0076375Y003745
X0076375Y00367
X0076375Y003595
X0076375Y00352
X0073375Y00352
X0073375Y003595
X0073375Y00367
X0073375Y003745
X0073375Y00382
X0074125Y00382
X0075625Y00382
X0072625Y00382
X0071875
X0071125Y00382
X0070375
X0069625
X0068875Y00382
Y00406
X0069625Y00406
X0070375
X0071125
X0071875
X0072625
X0073375Y00406
X00720179Y003545
X00712679
X00705179
X00697679
X00689322
X00681822
X00674322
X006375Y00353775
X006245Y00354
X006115Y00354225
X0060075Y003195
X005985Y00287
X00598Y0027075
X00598Y0026275
X0059Y0026275
X0059Y0027075
X0063775Y00271
Y00286
X0065275
Y00271
X0064375Y002415
X0063575Y002415
X0063575Y002335
X0064375Y002335
Y0020875
X0063575Y0020875
X0063575Y0020075
X0064375Y0020075
X00658Y0018925
Y0018
Y0017075
X0066725
Y0018
X0067675Y0017975
X00686
Y001705
X0067675
X0073175Y0016875
X00615Y00152
X00607Y00152
X00607Y00144
X00615Y00144
X005605Y0014875
X0055275
X00545
X00544298Y00379
X00555299
X005663
Y0039
Y00401
X005773
Y0039
Y00379
X00596Y0039025
X0060675Y0040025
X0062807Y00417
Y004245
X00644Y00458987
Y00466487
Y00473987
Y00481487
Y00488987
Y00496487
X006515
X00659
X006665
X00674
Y00488987
Y00481487
Y00473987
Y00466487
Y00458987
X00671349Y0051816
X006985Y004975
X007115Y00497276
X007245Y00497051
X007375Y00496827
X007505Y00496602
X00724Y0048075
X00722149Y0051816
X00772949
X00823749
X00874549
X0086825Y004875
X0086075
X0085325
X0084575
Y0048
X0085325
X0086075
X0086825
X00925349Y0051816
X00831Y0031125
X00820059Y003115
X0080875Y0031475
X007795Y0029625
X00715Y003045
X00707
X00699
Y00297
X00658Y0031225
Y0031975
X006505
X00643
X006355
Y0031225
X00643
X006505
X0063825Y0038125
X0065175Y0039425
X0066125
X005553Y0039
X00544299
X00544298Y00401
X00555299
X0059925Y004585
Y00466
X0060675
Y004585
Y00473737
Y00481237
X00599Y00481
X00591875Y00481237
Y00473737
X0059925
X0058425Y0047375
Y0048125
X00569749Y0051816
X0051895
X0046815
X004655Y00477
Y00468643
Y00460285
Y00451928
Y00443571
Y00435214
Y00426857
Y004185
X0045625
X0043775Y004185
X004285
Y00426857
Y00435214
Y00443572
Y00451929
Y00460286
Y00468643
Y00477
X0043775Y00477
X0045625Y00477
X005005Y00465928
X0049818Y00451978
X005097Y00440358
X00522925Y00441375
Y00434
X005303
Y00441375
X00533299Y00401
Y0039
X00533298Y00379
X0051675Y004005
X0050875Y004005
X0050875Y004085
X0051675Y004085
X004665Y00398
X004665Y0039
X004665Y00382
X004665Y00374
X004665Y00366
X0042775Y00366
X0042775Y00374
X0042775Y00382
X0042775Y0039
X0042775Y00398
X00447Y0040225
X004035Y0040395
X0040275Y004175
Y00425
X0038036Y0040405
X00392Y0039075
X00352Y0039
X00341
Y00401
X00352
Y00379
X00341
X00329999
X00318998
X00307998
X00307999Y0039
Y00401
X00318998Y00401
X00329999
X0033Y0039
X00318999
X0028875Y00398
X0028075Y00398
X0028075Y00406
X0028875Y00406
X00297625Y00434
Y00441375
X00305
Y00434
X0028395Y0043968
X0027243Y004513
X0027475Y0046525
X002395Y00468643
Y00460285
Y00451928
Y00443571
Y00435214
Y00426857
Y004185
X0023025
X0021175Y004185
X002025
Y00426857
Y00435214
Y00443572
Y00451929
Y00460286
Y00468643
Y00477
X0021175Y00477
X0023025Y00477
X002395Y00477
X00189686Y00478857
Y004705
X00181329
X00172971
X00164614
Y00478857
X0016568Y004968
X001773Y0050832
X0018882Y004967
X0021415Y0051816
X0026495
X0031575
X0036655
X0037805Y0051157
X0036643Y0050005
X00366625Y00481487
Y00473987
X00374
X003815
X00389
Y00481487
X0038957Y0049995
X003815Y0046625
Y0045875
X00374
Y0046625
X00359Y00474
Y004815
X0041735Y0051816
X00366Y00333
X003585Y003395
X0035275Y00332
X003465Y0034525
X0033375Y0034275
X00317Y00342
X003035Y003205
X00292
X0026975Y00314
X0024825Y00294
X00231Y002835
X0022725Y0026875
X0027325Y0026475
X0027475Y0025125
X002875Y00267
X0032425Y0027075
X00339Y00270833
X00338338Y002585
X00332Y00243
X003215Y002335
X003355Y002255
X0033Y0021225
X003315Y0019975
X0030125Y001955
X0029425Y0020625
X002862Y0021779
X003015Y00231
X00274Y002
X0028025Y0019225
X0029475Y00166
X003445Y0017175
X0036475Y0017375
X00367Y00192368
X0036925Y00208028
X0039375Y00187
Y0017925
Y001715
X004015
Y0017925
Y00187
X0042275Y00195
X0042775Y0021925
X0043875
X0045825Y00219
Y0022675
Y002345
Y0024225
X004505Y002345
X00476Y002515
X0049425Y00240275
X0050725Y0024005
X0052025Y00239825
X00536Y002
X0051275Y001825
Y0017475
Y00167
X0052175Y0016425
Y001565
Y0014875
X005295
X0053725
X00505Y0015275
X0049725
X004895
X0048175
X00474
X00453Y001525
X0044525
X004375
Y0014475
X0044525
X00453
X0043775Y0016675
X00505Y001605
X004255Y0025825
X0040475Y002385
X00376Y002805
X003535Y002985
X00343Y003035
X0020375Y00319
X0020175Y00366
X0020175Y00374
X0020175Y00382
X0020175Y0039
X0020175Y00398
X00221Y0040225
X002405Y00398
X002405Y0039
X002405Y00382
X002405Y00374
X002405Y00366
X0017757Y0040395
X0017682Y004175
Y00425
X0015443Y0040405
X0016595Y0039243
X00156257Y0045875
Y00467107
X001479
Y00475464
Y0045875
X0016335Y0051816
X001655Y00281
X00220375Y00209625
X0022Y00201
X00176Y0014675
X00128Y0014475
X0012Y0014475
X0011975Y0017775
X0012775Y0017775
X0012775Y0018575
X0011975Y0018575
X0011725Y00254893
X0012525Y00254893
X0012525Y00262893
X0011725Y00262893
X0013936Y0026072
X001265Y002995
X00113809Y00293323
X001055Y003245
X0011975Y0033
X001325Y0033625
X001405Y00318
X00082368Y0031225
X00047655Y0030675
X0006825Y0034175
X00081997Y00379
X00092998
X00103999
X00115
Y0039
Y00401
X00126
Y0039
Y00379
X00104Y0039
X00092999
X00081999
Y00401
X00092998Y00401
X00103999
X0006575Y004005
X0005775Y004005
X0005775Y004085
X0006575Y004085
X0004743Y004005
X0005895Y0043968
X00071625Y00441375
Y00434
X00079
Y00441375
X0005905Y0046282
X0004743Y004513
Y005021
X0006175Y0051816
X0011255
X00131186Y00467107
X00139543
Y00475464
X0005525Y0025775
X0005539Y0024257
Y0022757
X0005525Y0021275
T03
X0048Y00057
Y00087
X0051
Y00057
X006772Y00068
X007026
X00728
X00789275
X00814675
X00840075
X0090135Y000675
X0092675
X0088525Y0010885
Y0013425
X00769Y0013425
Y0010885
X00653
Y0013425
X0095215Y000675
X0056175Y00495
X0053635
X0051095
X00337
X003116
X002862
X0039245Y0030734
X0041785
X0044325
X0046865
X0049405
X0051945
X001354Y00495
X0011
X000846
T04
X00035Y00035
X00615
X01015
Y00525
X00884Y00287
Y00215
X00615Y00525
X00035
T05
X0045Y000476
X0054
M30
